<?xml version="1.0" standalone="no"?>
<!DOCTYPE svg PUBLIC "-//W3C//DTD SVG 20010904//EN"
 "http://www.w3.org/TR/2001/REC-SVG-20010904/DTD/svg10.dtd">
<svg version="1.0" xmlns="http://www.w3.org/2000/svg"
 width="2700.000000pt" height="2700.000000pt" viewBox="0 0 2700.000000 2700.000000"
 preserveAspectRatio="xMidYMid meet">
<metadata>
Created by potrace 1.14, written by Peter Selinger 2001-2017
</metadata>
<g transform="translate(0.000000,2700.000000) scale(0.100000,-0.100000)"
fill="#000000" stroke="none">
<path d="M0 13500 l0 -13500 13500 0 13500 0 0 13500 0 13500 -13500 0 -13500
0 0 -13500z m12790 7260 c332 -18 652 -55 885 -101 28 -5 97 -19 155 -30 58
-11 121 -24 140 -29 19 -5 67 -16 105 -26 39 -9 90 -22 115 -29 25 -7 63 -17
85 -24 133 -36 409 -122 450 -140 11 -5 43 -16 70 -26 28 -9 59 -20 70 -25 11
-5 56 -23 100 -40 113 -45 173 -69 225 -93 25 -11 65 -29 90 -39 25 -11 128
-61 230 -111 167 -83 220 -110 385 -202 277 -154 713 -451 960 -653 12 -10 57
-46 100 -82 44 -35 82 -67 85 -70 3 -3 52 -46 110 -95 137 -117 559 -539 679
-680 52 -60 97 -112 100 -115 3 -3 24 -27 47 -55 131 -161 214 -268 304 -391
55 -77 103 -143 108 -149 9 -13 144 -215 157 -237 61 -99 177 -293 197 -328
170 -300 291 -544 403 -815 31 -77 63 -153 70 -170 7 -16 25 -64 39 -105 15
-41 32 -86 37 -99 9 -23 83 -245 113 -341 12 -40 42 -149 81 -295 37 -139 79
-331 109 -505 8 -47 20 -114 26 -150 12 -64 17 -111 46 -365 28 -254 38 -632
25 -937 -6 -156 -18 -339 -25 -408 -32 -275 -36 -316 -41 -330 -3 -9 -9 -47
-15 -85 -5 -39 -17 -104 -25 -145 -8 -41 -20 -102 -25 -135 -6 -33 -15 -73
-20 -90 -4 -16 -16 -64 -25 -105 -9 -41 -23 -100 -32 -130 -8 -30 -18 -68 -23
-85 -36 -135 -158 -517 -191 -600 -4 -11 -33 -85 -65 -165 -31 -80 -67 -167
-79 -195 -12 -27 -33 -75 -46 -105 -38 -90 -239 -490 -281 -558 -21 -34 -38
-64 -38 -67 0 -2 -25 -45 -55 -95 -30 -50 -55 -93 -55 -96 0 -3 -11 -20 -25
-38 -14 -18 -25 -35 -25 -39 0 -5 -81 -132 -97 -152 -4 -5 -35 -50 -68 -100
-149 -226 -357 -492 -596 -765 -164 -187 -440 -466 -615 -621 -71 -62 -131
-116 -134 -119 -3 -3 -66 -56 -140 -116 -216 -177 -510 -391 -713 -520 -43
-27 -89 -56 -102 -64 -21 -14 -133 -80 -295 -173 -68 -39 -486 -248 -580 -290
-30 -14 -107 -46 -170 -71 -63 -26 -123 -52 -132 -57 -10 -5 -23 -9 -29 -9 -6
0 -27 -7 -47 -16 -21 -9 -52 -22 -70 -30 -18 -8 -39 -14 -47 -14 -9 0 -23 -4
-33 -10 -24 -14 -160 -61 -202 -70 -19 -4 -46 -12 -60 -17 -63 -26 -336 -99
-510 -138 -218 -48 -272 -58 -575 -105 -78 -12 -213 -26 -385 -42 -73 -6
-1048 -11 -2646 -14 -2066 -4 -2533 -2 -2542 8 -7 9 -15 145 -21 368 -6 195
-18 501 -26 680 -30 669 -35 805 -41 1225 -7 542 11 1060 46 1335 34 264 51
369 86 530 16 72 25 107 79 295 48 170 184 552 245 690 5 11 34 85 65 165 31
80 62 159 69 175 7 17 21 50 31 75 18 45 22 57 48 120 8 19 22 55 32 80 9 25
22 56 27 70 5 13 19 51 30 85 11 33 24 65 28 70 4 6 10 21 13 35 3 14 14 50
26 80 47 123 150 492 165 590 4 25 11 59 16 75 14 48 38 247 51 413 21 291
-25 661 -127 1012 -42 145 -57 194 -65 215 -4 11 -17 47 -28 80 -11 34 -24 72
-30 85 -5 14 -28 77 -51 140 -23 63 -48 129 -55 145 -8 17 -28 66 -45 110 -17
44 -35 89 -40 100 -4 11 -22 56 -40 100 -17 44 -42 104 -56 133 -13 29 -24 56
-24 60 0 6 -45 120 -70 177 -35 80 -140 361 -147 395 -3 14 -9 30 -13 35 -4 6
-21 57 -39 115 -18 58 -38 125 -46 150 -7 25 -25 92 -39 150 -13 58 -30 128
-36 155 -7 28 -16 77 -20 110 -5 33 -13 89 -18 125 -94 583 -101 1529 -23
2875 6 99 16 340 22 535 6 218 14 359 21 367 8 11 479 13 2402 13 1480 0 2461
-4 2576 -10z"/>
<path d="M9418 20613 c-13 -3 -18 -14 -18 -36 0 -18 7 -246 15 -507 13 -454
22 -631 46 -965 6 -82 15 -220 19 -305 4 -85 13 -211 19 -280 6 -69 16 -181
21 -250 17 -199 40 -453 56 -610 8 -80 14 -168 14 -196 0 -28 4 -75 10 -105 5
-30 14 -108 20 -174 5 -66 14 -174 20 -240 5 -66 14 -158 20 -205 5 -47 17
-168 25 -270 9 -102 22 -257 30 -345 8 -88 19 -218 24 -290 6 -71 17 -213 26
-315 16 -201 31 -442 45 -755 6 -110 14 -279 20 -375 13 -226 12 -1331 0
-1565 -6 -99 -14 -277 -20 -395 -12 -292 -27 -537 -45 -770 -9 -107 -20 -251
-25 -320 -6 -69 -15 -177 -21 -240 -5 -63 -14 -176 -19 -250 -5 -74 -14 -184
-20 -245 -6 -60 -17 -180 -25 -265 -9 -85 -20 -204 -25 -265 -5 -60 -16 -182
-25 -270 -15 -161 -30 -341 -40 -470 -3 -38 -12 -140 -20 -225 -8 -85 -19
-213 -24 -285 -6 -71 -17 -209 -26 -305 -8 -96 -15 -204 -15 -240 0 -36 -6
-157 -14 -270 -34 -454 -50 -856 -58 -1410 l-3 -195 1640 -5 c1899 -6 1976 -4
2270 42 236 37 564 115 695 166 14 5 50 17 80 27 30 9 64 20 75 25 11 4 40 15
65 25 25 9 59 23 75 30 17 7 55 23 85 35 81 33 293 136 385 188 44 25 101 57
126 71 200 112 575 383 769 557 19 17 60 53 90 80 78 70 333 327 410 414 36
41 74 84 85 96 19 20 103 124 208 255 68 85 177 235 233 319 27 41 51 77 54
80 11 10 100 149 164 255 37 61 71 117 76 125 6 8 13 21 17 29 3 8 35 64 71
125 74 129 342 669 342 691 0 2 14 34 31 72 16 37 35 79 41 93 5 14 16 39 23
55 11 27 34 85 55 140 4 11 15 39 24 63 9 23 22 59 30 80 42 109 100 282 151
447 15 50 32 104 37 120 9 29 31 107 48 170 13 49 80 315 96 385 28 120 55
249 79 385 9 50 20 110 25 135 10 45 23 137 40 285 6 44 12 89 15 100 12 45
36 397 44 643 16 472 -10 970 -69 1357 -5 33 -16 110 -25 170 -9 61 -21 130
-27 155 -5 25 -14 70 -19 100 -8 54 -26 142 -55 270 -8 36 -18 83 -23 105 -4
22 -13 60 -20 85 -7 25 -17 61 -21 80 -5 19 -16 60 -24 90 -8 30 -22 82 -31
115 -25 91 -43 153 -66 225 -11 36 -31 99 -44 140 -27 87 -90 269 -110 320 -7
19 -26 69 -41 110 -14 41 -32 89 -39 105 -7 17 -34 82 -60 145 -26 63 -59 140
-72 170 -14 30 -31 69 -38 85 -22 51 -265 538 -284 570 -10 17 -33 57 -51 90
-18 33 -50 87 -70 120 -20 33 -39 67 -43 75 -4 8 -15 27 -25 41 -9 15 -48 76
-85 135 -100 160 -273 407 -367 524 -20 25 -71 88 -113 140 -42 52 -89 109
-104 126 -15 16 -57 63 -93 104 -72 81 -328 340 -406 410 -184 165 -235 206
-440 358 -283 210 -655 423 -954 546 -63 26 -124 51 -135 56 -35 15 -347 117
-415 134 -36 10 -81 22 -100 27 -34 9 -56 14 -210 45 -117 23 -256 44 -365 54
-55 5 -147 14 -205 19 -103 10 -3456 14 -3492 4z"/>
</g>
</svg>
